<?xml version="1.0" encoding="UTF-8" standalone="no" ?>
<!DOCTYPE svg PUBLIC "-//W3C//DTD SVG 1.1//EN" "http://www.w3.org/Graphics/SVG/1.1/DTD/svg11.dtd">
<svg xmlns="http://www.w3.org/2000/svg" xmlns:xlink="http://www.w3.org/1999/xlink" version="1.1" width="1080" height="1080" viewBox="0 0 1080 1080" xml:space="preserve">
<desc>Created with Fabric.js 5.2.4</desc>
<defs>
</defs>
<g transform="matrix(1 0 0 1 540 540)" id="5d71d529-9775-46a1-802d-1063704e86a8"  >
</g>
<g transform="matrix(1 0 0 1 540 540)" id="2d349cbb-ffc6-49fe-8bb8-8cade084f1c9"  >
<rect style="stroke: none; stroke-width: 1; stroke-dasharray: none; stroke-linecap: butt; stroke-dashoffset: 0; stroke-linejoin: miter; stroke-miterlimit: 4; fill: rgb(255,255,255); fill-rule: nonzero; opacity: 1; visibility: hidden;" vector-effect="non-scaling-stroke"  x="-540" y="-540" rx="0" ry="0" width="1080" height="1080" />
</g>
<g transform="matrix(1.83 0 0 1.83 -270.26 288.74)"  >
<rect style="stroke: none; stroke-width: 1; stroke-dasharray: none; stroke-linecap: butt; stroke-dashoffset: 0; stroke-linejoin: miter; stroke-miterlimit: 4; fill: rgb(255,255,255); fill-opacity: 0; fill-rule: nonzero; opacity: 1;" vector-effect="non-scaling-stroke"  x="-50" y="-50" rx="0" ry="0" width="100" height="100" />
</g>
<g transform="matrix(1 0 0 1 -75.3 117.03)"  >
<rect style="stroke: none; stroke-width: 1; stroke-dasharray: none; stroke-linecap: butt; stroke-dashoffset: 0; stroke-linejoin: miter; stroke-miterlimit: 4; fill: rgb(255,255,255); fill-rule: nonzero; opacity: 1; visibility: hidden;" vector-effect="non-scaling-stroke"  x="-540" y="-540" rx="0" ry="0" width="1080" height="1080" />
</g>
<g transform="matrix(1 0 0 1 718.61 885.91)"  >
<rect style="stroke: none; stroke-width: 1; stroke-dasharray: none; stroke-linecap: butt; stroke-dashoffset: 0; stroke-linejoin: miter; stroke-miterlimit: 4; fill: rgb(255,255,255); fill-rule: nonzero; opacity: 1; visibility: hidden;" vector-effect="non-scaling-stroke"  x="-540" y="-540" rx="0" ry="0" width="1080" height="1080" />
</g>
<g transform="matrix(1 0 0 1 -75.3 117.03)"  >
<rect style="stroke: none; stroke-width: 1; stroke-dasharray: none; stroke-linecap: butt; stroke-dashoffset: 0; stroke-linejoin: miter; stroke-miterlimit: 4; fill: rgb(255,255,255); fill-rule: nonzero; opacity: 1; visibility: hidden;" vector-effect="non-scaling-stroke"  x="-540" y="-540" rx="0" ry="0" width="1080" height="1080" />
</g>
<g transform="matrix(1.83 0 0 1.83 556.34 536.54)"  >
<path style="stroke: none; stroke-width: 1; stroke-dasharray: none; stroke-linecap: butt; stroke-dashoffset: 0; stroke-linejoin: miter; stroke-miterlimit: 4; fill: rgb(226,232,240); fill-rule: nonzero; opacity: 1;" vector-effect="non-scaling-stroke"  transform=" translate(-284, -284)" d="M 400.4 564.4 L 564.4 400.4 L 564.4 167.6 L 400.4 3.5999999999999943 L 167.5 3.5999999999999943 L 3.6 167.6 L 3.6 400.4 L 167.6 564.4 z" stroke-linecap="round" />
</g>
<g transform="matrix(1.83 0 0 1.83 556.33 536.53)"  >
<path style="stroke: none; stroke-width: 1; stroke-dasharray: none; stroke-linecap: butt; stroke-dashoffset: 0; stroke-linejoin: miter; stroke-miterlimit: 4; fill: rgb(32,40,92); fill-rule: nonzero; opacity: 1;" vector-effect="non-scaling-stroke"  transform=" translate(-284, -284)" d="M 166 0 L 1 165 L 0 166 L 0 402 L 165 567 L 166 568 L 402 568 L 567 403 L 568 402 L 568 166 L 403 1 L 402 0 L 166 0 Z M 7.3 399 L 7.3 169 L 169 7.2 L 399 7.2 L 560.8 169 L 560.8 399 L 399 560.8 L 169 560.8 L 7.3 399 Z" stroke-linecap="round" />
</g>
<g transform="matrix(1.83 0 0 1.83 556.36 536.56)"  >
<path style="stroke: none; stroke-width: 1; stroke-dasharray: none; stroke-linecap: butt; stroke-dashoffset: 0; stroke-linejoin: miter; stroke-miterlimit: 4; fill: rgb(32,40,92); fill-rule: nonzero; opacity: 1;" vector-effect="non-scaling-stroke"  transform=" translate(-284.05, -284.05)" d="M 395.7 14.4 L 396.3 15 L 553.6 172.3 L 553.6 395.70000000000005 L 395.6 553.7 L 172.4 553.7 L 14.5 395.70000000000005 L 14.5 172.3 L 15.1 171.70000000000002 L 172.3 14.4 L 395.70000000000005 14.4 Z M 394 18.4 L 174 18.4 L 18.4 174 L 18.4 394 L 174 549.6 L 394 549.6 L 549.6 394 L 549.6 174 L 394 18.4 Z" stroke-linecap="round" />
</g>
<g transform="matrix(1.83 0 0 1.83 540 540)"  >
<path style="stroke: none; stroke-width: 1; stroke-dasharray: none; stroke-linecap: butt; stroke-dashoffset: 0; stroke-linejoin: miter; stroke-miterlimit: 4; fill: rgb(32,40,92); fill-rule: nonzero; opacity: 1;" vector-effect="non-scaling-stroke"  transform=" translate(-284, -283.94)" d="M 524.8 313 L 533.9 313 L 506.59999999999997 343.4 L 506.59999999999997 365.9 L 500.2 365.9 L 500.2 343.4 L 473 313 L 482.1 313 L 503.3 337.8 z M 442.19999999999993 365.9 L 435.79999999999995 365.9 L 435.79999999999995 318.5 L 411.59999999999997 318.5 L 411.59999999999997 313 L 466.59999999999997 313 L 466.59999999999997 318.4 L 442.2 318.4 z M 389.49999999999994 365.9 L 395.8999999999999 365.9 L 395.8999999999999 313 L 389.49999999999994 313 z M 351.29999999999995 339.2 C 359.09999999999997 339.2 362.09999999999997 337.3 362.09999999999997 328.4 C 362.09999999999997 319.4 358.09999999999997 318.4 351.09999999999997 318.4 L 320.7 318.4 L 320.7 339.2 L 351.3 339.2 Z M 352.29999999999995 313.09999999999997 C 362.59999999999997 313.09999999999997 367.79999999999995 315.79999999999995 367.79999999999995 328.7 C 367.79999999999995 338.09999999999997 366.19999999999993 340.9 358.09999999999997 342.2 C 363.4 343 366.99999999999994 344.59999999999997 366.99999999999994 351.59999999999997 L 366.99999999999994 365.9 L 361.49999999999994 365.9 L 361.49999999999994 354.2 C 361.49999999999994 346 358.49999999999994 344.5 351.8999999999999 344.5 L 320.69999999999993 344.5 L 320.69999999999993 365.9 L 315.19999999999993 365.9 L 315.19999999999993 313 L 352.3999999999999 313 Z M 291.69999999999993 313.09999999999997 L 291.69999999999993 349.59999999999997 C 291.69999999999993 365.7 285.99999999999994 365.99999999999994 273.19999999999993 366.4 C 265.7997519994797 366.56884499822775 258.39600485122554 366.5021445734687 250.99999999999994 366.2 C 241.99999999999994 365.8 237.99999999999994 361.9 237.99999999999994 351.5 L 237.99999999999994 313 L 243.49999999999994 313 L 243.49999999999994 350.7 C 243.49999999999994 359.7 247.19999999999993 360.4 254.49999999999994 360.59999999999997 L 264.19999999999993 360.7 L 274.79999999999995 360.5 C 282.4 360.2 286.19999999999993 359.8 286.19999999999993 350.1 L 286.19999999999993 313.1 L 291.69999999999993 313.1 Z M 219.29999999999993 348.4 C 219.29999999999993 361.29999999999995 217.79999999999993 365.9 203.79999999999993 366.2 L 191.79999999999993 366.4 L 186.59999999999994 366.5 C 183.09999999999994 366.5 179.59999999999994 366.4 176.19999999999993 366 C 167.99999999999994 365 164.19999999999993 360.1 163.79999999999993 350.8 C 163.59707235766842 347.4705501370683 163.49702466212648 344.1356269523378 163.4999999999999 340.79999999999995 C 163.49999999999991 335.6 163.49999999999991 330.3 164.29999999999993 325.3 C 165.99999999999991 315.7 170.89999999999992 313.7 178.69999999999993 313.1 C 182.89999999999992 312.6 187.29999999999993 312.6 191.49999999999994 312.6 L 198.29999999999995 312.6 C 202.29999999999995 312.6 206.29999999999995 312.6 210.29999999999995 313.6 C 217.99999999999994 315.40000000000003 218.49999999999994 322.6 218.79999999999995 329.90000000000003 L 213.19999999999996 329.90000000000003 L 213.19999999999996 329.50000000000006 C 213.19999999999996 326.50000000000006 213.09999999999997 321.90000000000003 210.79999999999995 320.20000000000005 C 208.19999999999996 318.20000000000005 200.19999999999996 318.20000000000005 194.99999999999994 318.20000000000005 C 189.99999999999994 318.20000000000005 184.79999999999995 318.20000000000005 179.69999999999993 318.6 C 171.69999999999993 319.40000000000003 170.59999999999994 320.8 169.69999999999993 329.6 C 169.39999999999992 334.1 169.39999999999992 338.6 169.39999999999992 343 C 169.39999999999992 354.2 169.39999999999992 360.7 180.5999999999999 360.7 L 191.5999999999999 360.8 L 201.99999999999991 360.7 C 209.5999999999999 360.4 213.39999999999992 360 213.39999999999992 350.5 L 213.39999999999992 348.4 L 219.39999999999992 348.4 Z M 109.09999999999992 335.9 L 144.49999999999991 335.9 L 144.49999999999991 341.2 L 109.09999999999991 341.2 L 109.09999999999991 360.59999999999997 L 146.7999999999999 360.59999999999997 L 146.7999999999999 365.9 L 102.7999999999999 365.9 L 102.7999999999999 313 L 146.1999999999999 313 L 146.1999999999999 318.4 L 109.1999999999999 318.4 z M 79.79999999999993 327.7 C 79.79999999999993 324.9 79.49999999999993 321.3 76.89999999999992 320 C 72.06359970486706 318.4306825669768 66.9749387823007 317.78611885011844 61.899999999999906 318.1 L 59.89999999999992 318.1 C 55.59999999999992 318.1 46.89999999999992 318.5 42.99999999999992 320.40000000000003 C 40.39999999999992 321.70000000000005 39.99999999999992 324.90000000000003 39.99999999999992 327.8 C 39.99999999999992 334.7 43.79999999999992 335.8 48.99999999999992 336.1 C 50.699999999999925 336.3 52.39999999999992 336.3 53.99999999999992 336.3 L 64.99999999999991 336.2 C 67.99999999999991 336.2 71.29999999999991 336.2 74.49999999999991 336.7 C 82.99999999999991 337.7 86.49999999999991 340.9 86.49999999999991 350.9 C 86.49999999999991 356.79999999999995 85.49999999999991 361.4 80.39999999999992 363.9 C 74.97053119195266 365.9130630840881 69.17914536028054 366.7647374710987 63.39999999999991 366.4 L 59.79999999999992 366.4 C 55.119924029262734 366.48227542233917 50.440239382540696 366.2148648710979 45.79999999999992 365.59999999999997 C 36 364 34 360.3 34 349.4 L 39.6 349.4 L 39.6 350.5 C 39.7 354.7 39.7 358 43.7 359.4 C 49.053159749803555 360.548135949706 54.529461066466375 361.01849311800834 60 360.79999999999995 C 64.3 360.79999999999995 68.7 360.59999999999997 73 359.9 C 78.3 359.2 80.6 357.09999999999997 80.6 350.9 C 80.6 342.79999999999995 76.89999999999999 342.29999999999995 70.5 342.09999999999997 L 60 342 C 55.9 341.9 51.7 341.9 47.6 341.6 C 39.6 341 34.1 338.70000000000005 34.1 329.1 C 34.1 322.6 35.5 317.1 41.1 314.70000000000005 C 47.3456630794197 312.96759113581834 53.82434901697829 312.22524170547314 60.30000000000002 312.50000000000006 C 64.8 312.50000000000006 69.39999999999999 312.70000000000005 73.89999999999999 313.20000000000005 C 81.89999999999999 314.20000000000005 85.39999999999999 318.6 85.39999999999999 327.70000000000005 L 79.8 327.70000000000005 Z M 511 239.6 C 504.3 238.9 497.6 238.79999999999998 492 238.79999999999998 L 481.3 238.79999999999998 L 470.8 238.89999999999998 C 467.7 238.89999999999998 464.40000000000003 238.89999999999998 461.40000000000003 238.7 L 461.20000000000005 238.7 C 450.50000000000006 238.29999999999998 447.80000000000007 236.39999999999998 447.80000000000007 229.6 C 447.80000000000007 223.7 449.50000000000006 222.2 451.1000000000001 221.6 C 461.288902175709 219.01489579240592 471.795745890447 217.90359501488552 482.30000000000007 218.29999999999995 L 486.00000000000006 218.29999999999998 C 492.00000000000006 218.29999999999998 508.00000000000006 218.29999999999998 513.4000000000001 220.79999999999998 C 515.6000000000001 221.79999999999998 516.4000000000001 224.39999999999998 516.4000000000001 229.39999999999998 L 516.4000000000001 233.39999999999998 L 536 233.39999999999998 L 536 229.39999999999998 C 536 212.79999999999998 527.7 204.39999999999998 509.8 202.59999999999997 C 500.8579931918733 201.77432811107585 491.8795659344074 201.4071805280567 482.8999999999999 201.4999999999999 C 469.8917159034716 200.9658878835917 456.87142252203364 202.21072213453022 444.20000000000005 205.19999999999996 C 440.20000000000005 206.69999999999996 427.70000000000005 211.09999999999997 427.70000000000005 231.59999999999997 C 427.70000000000005 250.89999999999998 443.1 254.39999999999998 458.1 255.29999999999995 C 464.5 255.69999999999996 471.1 255.79999999999995 477.5 255.79999999999995 L 482.3 255.89999999999995 L 502.8 256.09999999999997 C 515.8 256.4 518.4 257.2 518.4 265.99999999999994 C 518.4 273.19999999999993 516.1 275.29999999999995 507.4 276.29999999999995 C 499.79999999999995 277.19999999999993 491.7 277.59999999999997 482.5 277.59999999999997 C 476.5 277.59999999999997 460.2 277.59999999999997 452.2 275.59999999999997 C 447.9 274.4 447.5 272.7 447.4 265.59999999999997 L 447.4 259.59999999999997 L 427.9 259.59999999999997 L 427.9 263.59999999999997 C 427.9 281.4 431.9 290.4 454.2 292.99999999999994 C 463.59999999999997 294.19999999999993 473.5 294.29999999999995 482 294.29999999999995 L 489.1 294.29999999999995 C 501.1 294.29999999999995 514.8000000000001 293.99999999999994 523.7 290.29999999999995 C 536.7 284.99999999999994 538.3000000000001 274.49999999999994 538.3000000000001 265.99999999999994 C 538.3000000000001 246.29999999999995 527.3000000000001 241.19999999999993 511.1000000000001 239.59999999999994 M 353.6000000000001 254.69999999999993 L 417.80000000000007 254.69999999999993 L 417.80000000000007 238.29999999999993 L 353.6000000000001 238.29999999999993 L 353.6000000000001 218.89999999999992 L 420.4000000000001 218.89999999999992 L 420.4000000000001 202.39999999999992 L 335.5000000000001 202.39999999999992 L 335.5000000000001 293.5999999999999 L 421.2000000000001 293.5999999999999 L 421.2000000000001 277.19999999999993 L 353.60000000000014 277.19999999999993 z M 227.20000000000007 218.89999999999992 L 269.20000000000005 218.89999999999992 L 269.20000000000005 293.5999999999999 L 287.30000000000007 293.5999999999999 L 287.30000000000007 218.89999999999992 L 329.4000000000001 218.89999999999992 L 329.4000000000001 202.39999999999992 L 227.2 202.39999999999992 z M 172.4000000000001 256.0999999999999 L 190.9000000000001 221.5999999999999 L 209.7000000000001 256.0999999999999 L 172.4000000000001 256.0999999999999 Z M 181.9000000000001 202.2999999999999 L 131.2000000000001 293.5999999999999 L 152.4000000000001 293.5999999999999 L 163.00000000000009 272.4999999999999 L 219.2000000000001 272.4999999999999 L 230.0000000000001 293.4999999999999 L 251.0000000000001 293.4999999999999 L 199.90000000000012 202.3999999999999 L 181.90000000000012 202.3999999999999 Z M 47.8 218.8 L 101.6 218.8 C 110.8 218.8 112.8 220.5 112.8 228.10000000000002 C 112.8 236.10000000000002 110.3 238.10000000000002 100.1 238.10000000000002 L 47.8 238.10000000000002 L 47.8 218.8 Z M 102.1 254.4 C 106.1 254.4 109.8 254.5 112.69999999999999 256 C 115.49999999999999 257.7 115.69999999999999 262 115.69999999999999 266.9 C 115.69999999999999 275.09999999999997 112.69999999999999 277.2 100.99999999999999 277.2 L 47.8 277.2 L 47.8 254.39999999999998 L 102.1 254.39999999999998 Z M 125.6 244.70000000000002 C 129.79999999999998 241.3 131.29999999999998 236.00000000000003 131.29999999999998 227.20000000000002 C 131.29999999999998 206.70000000000002 116.49999999999999 202.3 104.09999999999998 202.3 L 29.7 202.3 L 29.7 293.6 L 103 293.6 C 118.4 293.6 134.2 290.20000000000005 134.2 265.40000000000003 C 134.2 254.50000000000003 131.79999999999998 248.10000000000002 125.6 244.70000000000005 Z" stroke-linecap="round" />
</g>
</svg>