<?xml version="1.0" encoding="UTF-8" standalone="no" ?>
<!DOCTYPE svg PUBLIC "-//W3C//DTD SVG 1.1//EN" "http://www.w3.org/Graphics/SVG/1.1/DTD/svg11.dtd">
<svg xmlns="http://www.w3.org/2000/svg" xmlns:xlink="http://www.w3.org/1999/xlink" version="1.1" width="1080" height="1080" viewBox="0 0 1080 1080" xml:space="preserve">
<desc>Created with Fabric.js 5.2.4</desc>
<defs>
</defs>
<g transform="matrix(1 0 0 1 540 540)" id="bc1abc81-6821-4fa2-bd33-f00e444edd7f"  >
<rect style="stroke: none; stroke-width: 1; stroke-dasharray: none; stroke-linecap: butt; stroke-dashoffset: 0; stroke-linejoin: miter; stroke-miterlimit: 4; fill: rgb(255,255,255); fill-rule: nonzero; opacity: 1; visibility: hidden;" vector-effect="non-scaling-stroke"  x="-540" y="-540" rx="0" ry="0" width="1080" height="1080" />
</g>
<g transform="matrix(1 0 0 1 540 540)" id="734db602-f796-4876-b797-20f18be00dd2"  >
</g>
<g transform="matrix(1 0 0 1 -310.56 -334.44)"  >
<rect style="stroke: none; stroke-width: 1; stroke-dasharray: none; stroke-linecap: butt; stroke-dashoffset: 0; stroke-linejoin: miter; stroke-miterlimit: 4; fill: rgb(255,255,255); fill-opacity: 0; fill-rule: nonzero; opacity: 1;" vector-effect="non-scaling-stroke"  x="-50" y="-50" rx="0" ry="0" width="100" height="100" />
</g>
<g transform="matrix(1 0 0 1 179.44 155.56)"  >
<rect style="stroke: none; stroke-width: 1; stroke-dasharray: none; stroke-linecap: butt; stroke-dashoffset: 0; stroke-linejoin: miter; stroke-miterlimit: 4; fill: rgb(255,255,255); fill-rule: nonzero; opacity: 1; visibility: hidden;" vector-effect="non-scaling-stroke"  x="-540" y="-540" rx="0" ry="0" width="1080" height="1080" />
</g>
<g transform="matrix(1 0 0 1 973.35 924.44)"  >
<rect style="stroke: none; stroke-width: 1; stroke-dasharray: none; stroke-linecap: butt; stroke-dashoffset: 0; stroke-linejoin: miter; stroke-miterlimit: 4; fill: rgb(255,255,255); fill-rule: nonzero; opacity: 1; visibility: hidden;" vector-effect="non-scaling-stroke"  x="-540" y="-540" rx="0" ry="0" width="1080" height="1080" />
</g>
<g transform="matrix(1 0 0 1 179.44 155.56)"  >
<rect style="stroke: none; stroke-width: 1; stroke-dasharray: none; stroke-linecap: butt; stroke-dashoffset: 0; stroke-linejoin: miter; stroke-miterlimit: 4; fill: rgb(255,255,255); fill-rule: nonzero; opacity: 1; visibility: hidden;" vector-effect="non-scaling-stroke"  x="-540" y="-540" rx="0" ry="0" width="1080" height="1080" />
</g>
<g transform="matrix(3.16 0 0 3.16 538.13 288.87)"  >
<path style="stroke: none; stroke-width: 1; stroke-dasharray: none; stroke-linecap: butt; stroke-dashoffset: 0; stroke-linejoin: miter; stroke-miterlimit: 4; fill: rgb(226,232,240); fill-rule: evenodd; opacity: 0.98;" vector-effect="non-scaling-stroke"  transform=" translate(-167, -60)" d="M 165.5 -0.5 C 166.5 -0.5 167.5 -0.5 168.5 -0.5 C 223.271 39.935 278.604 79.6017 334.5 118.5 C 334.5 119.167 334.5 119.833 334.5 120.5 C 301.167 120.5 267.833 120.5 234.5 120.5 C 234.244 118.208 234.577 116.041 235.5 114 C 238.43 113.394 241.263 112.56 244 111.5 C 243.865 109.575 243.698 107.575 243.5 105.5 C 236.268 107.239 232.268 104.573 231.5 97.5 C 234.921 96.6222 237.921 94.9556 240.5 92.5 C 239.864 90.2054 238.531 88.5387 236.5 87.5 C 233.978 88.0888 231.478 88.7554 229 89.5 C 226.608 87.7203 225.608 85.387 226 82.5 C 228.043 80.2878 230.209 78.2878 232.5 76.5 C 231.396 74.6115 230.063 72.9448 228.5 71.5 C 225.311 73.7937 221.977 74.7937 218.5 74.5 C 217.5 73.1667 216.5 71.8333 215.5 70.5 C 217.167 67.8333 218.833 65.1667 220.5 62.5 C 219.185 60.6841 217.685 59.0175 216 57.5 C 213.214 60.3504 210.047 62.1837 206.5 63 C 204.777 62.4768 203.444 61.4768 202.5 60 C 203.401 57.1289 204.401 54.2956 205.5 51.5 C 203.971 49.8119 202.137 48.4786 200 47.5 C 198.167 50 196.333 52.5 194.5 55 C 187.692 55.5085 185.692 52.5085 188.5 46 C 187.175 42.6259 184.842 41.7926 181.5 43.5 C 180.761 46.6495 179.261 49.3162 177 51.5 C 175.234 50.7665 173.401 50.4332 171.5 50.5 C 170.793 47.2139 170.46 43.8806 170.5 40.5 C 168.167 40.5 165.833 40.5 163.5 40.5 C 162.793 43.7861 162.46 47.1194 162.5 50.5 C 159.833 50.8333 157.167 51.1667 154.5 51.5 C 153.969 48.763 153.136 46.0964 152 43.5 C 149.502 42.4018 147.002 42.5684 144.5 44 C 145.456 47.3936 145.789 50.8936 145.5 54.5 C 143.181 55.167 140.847 55.3336 138.5 55 C 137.167 53 135.833 51 134.5 49 C 131.983 48.7434 129.65 49.4101 127.5 51 C 131.662 56.256 131.162 60.756 126 64.5 C 123.323 62.4857 120.656 60.4857 118 58.5 C 114.969 59.5065 113.635 61.5065 114 64.5 C 115.308 66.6414 116.808 68.6414 118.5 70.5 C 117.352 72.1487 116.019 73.6487 114.5 75 C 111.388 74.4568 108.388 73.2901 105.5 71.5 C 103.005 72.8341 101.838 74.8341 102 77.5 C 104.016 79.684 106.183 81.684 108.5 83.5 C 107.627 85.4134 106.627 87.2467 105.5 89 C 102.13 88.7902 98.7964 88.4569 95.5 88 C 94.6422 89.57 93.9755 91.2367 93.5 93 C 95.4638 94.9875 97.7971 96.4875 100.5 97.5 C 101.449 100.126 101.449 102.792 100.5 105.5 C 97.1501 105.335 93.8168 105.502 90.5 106 C 89.5769 108.041 89.2436 110.208 89.5 112.5 C 92.8774 112.959 96.2107 113.626 99.5 114.5 C 99.5 116.5 99.5 118.5 99.5 120.5 C 66.1667 120.5 32.8333 120.5 -0.5 120.5 C -0.5 119.833 -0.5 119.167 -0.5 118.5 C 55.1944 79.3211 110.528 39.6544 165.5 -0.5 Z" stroke-linecap="round" />
</g>
<g transform="matrix(3.16 0 0 3.16 538.19 379.49)"  >
<path style="stroke: none; stroke-width: 1; stroke-dasharray: none; stroke-linecap: butt; stroke-dashoffset: 0; stroke-linejoin: miter; stroke-miterlimit: 4; fill: rgb(226,232,240); fill-rule: evenodd; opacity: 0.92;" vector-effect="non-scaling-stroke"  transform=" translate(-166.75, -88.54)" d="M 161.5 56.5 C 190.94 55.9582 211.773 68.9582 224 95.5 C 226.79 103.299 228.124 111.299 228 119.5 C 225.281 120.444 222.448 120.777 219.5 120.5 C 218.896 91.4421 204.563 73.2754 176.5 66 C 146.73 63.1297 126.564 75.6297 116 103.5 C 114.711 109.088 114.211 114.755 114.5 120.5 C 111.5 120.5 108.5 120.5 105.5 120.5 C 107.502 84.5021 126.169 63.1687 161.5 56.5 Z" stroke-linecap="round" />
</g>
<g transform="matrix(3.16 0 0 3.16 538.88 455.24)"  >
<path style="stroke: none; stroke-width: 1; stroke-dasharray: none; stroke-linecap: butt; stroke-dashoffset: 0; stroke-linejoin: miter; stroke-miterlimit: 4; fill: rgb(226,232,240); fill-rule: evenodd; opacity: 0.96;" vector-effect="non-scaling-stroke"  transform=" translate(-166.86, -112.39)" d="M 161.5 104.5 C 174.025 102.702 180.358 108.035 180.5 120.5 C 171.475 120.832 162.475 120.498 153.5 119.5 C 152.839 116.437 153.339 113.437 155 110.5 C 157.063 108.266 159.229 106.266 161.5 104.5 Z" stroke-linecap="round" />
</g>
<g transform="matrix(3.16 0 0 3.16 385.28 616.88)"  >
<path style="stroke: none; stroke-width: 1; stroke-dasharray: none; stroke-linecap: butt; stroke-dashoffset: 0; stroke-linejoin: miter; stroke-miterlimit: 4; fill: rgb(226,232,240); fill-rule: evenodd; opacity: 0.98;" vector-effect="non-scaling-stroke"  transform=" translate(-118.39, -163.47)" d="M 128.5 133.5 C 135.531 132.919 140.031 135.919 142 142.5 C 142.951 157.568 142.617 172.568 141 187.5 C 138.546 191.546 134.879 193.546 130 193.5 C 122.973 193.669 118.973 190.335 118 183.5 C 117.185 169.788 117.352 156.121 118.5 142.5 C 115.894 141.348 113.227 141.182 110.5 142 C 111.658 158.426 111.824 174.926 111 191.5 C 108.281 192.444 105.448 192.777 102.5 192.5 C 102.5 175.5 102.5 158.5 102.5 141.5 C 96.0729 143.238 93.4062 140.905 94.5 134.5 C 102.167 134.5 109.833 134.5 117.5 134.5 C 117.317 140.316 118.65 140.816 121.5 136 C 123.927 135.098 126.26 134.264 128.5 133.5 Z M 127.5 141.5 C 129.766 141.141 131.599 141.808 133 143.5 C 133.667 156.833 133.667 170.167 133 183.5 C 131.599 185.192 129.766 185.859 127.5 185.5 C 126.167 170.833 126.167 156.167 127.5 141.5 Z" stroke-linecap="round" />
</g>
<g transform="matrix(3.16 0 0 3.16 54.65 616.98)"  >
<path style="stroke: none; stroke-width: 1; stroke-dasharray: none; stroke-linecap: butt; stroke-dashoffset: 0; stroke-linejoin: miter; stroke-miterlimit: 4; fill: rgb(226,232,240); fill-rule: evenodd; opacity: 1;" vector-effect="non-scaling-stroke"  transform=" translate(-14, -163.5)" d="M -0.5 134.5 C 3.83333 134.5 8.16667 134.5 12.5 134.5 C 14.5039 143.516 16.6705 152.516 19 161.5 C 19.4998 152.506 19.6664 143.506 19.5 134.5 C 22.5 134.5 25.5 134.5 28.5 134.5 C 28.5 153.833 28.5 173.167 28.5 192.5 C 25.1667 192.5 21.8333 192.5 18.5 192.5 C 16.4959 182.148 14.3292 171.814 12 161.5 C 11.5002 171.828 11.3335 182.161 11.5 192.5 C 8.83333 192.5 6.16667 192.5 3.5 192.5 C 3.5 175.5 3.5 158.5 3.5 141.5 C 1.80072 141.473 0.46739 140.806 -0.5 139.5 C -0.5 137.833 -0.5 136.167 -0.5 134.5 Z" stroke-linecap="round" />
</g>
<g transform="matrix(3.16 0 0 3.16 204.98 617.22)"  >
<path style="stroke: none; stroke-width: 1; stroke-dasharray: none; stroke-linecap: butt; stroke-dashoffset: 0; stroke-linejoin: miter; stroke-miterlimit: 4; fill: rgb(226,232,240); fill-rule: evenodd; opacity: 0.99;" vector-effect="non-scaling-stroke"  transform=" translate(-61.5, -163.58)" d="M 29.5 134.5 C 41.6433 134.937 53.6433 134.937 65.5 134.5 C 67.1828 166.451 68.8495 166.451 70.5 134.5 C 73.1667 134.5 75.8333 134.5 78.5 134.5 C 79.747 143.476 80.9137 152.476 82 161.5 C 83.0982 152.519 83.9315 143.519 84.5 134.5 C 87.5 134.5 90.5 134.5 93.5 134.5 C 91.5809 153.52 89.4142 172.52 87 191.5 C 84.2809 192.444 81.4475 192.777 78.5 192.5 C 77.5904 181.48 76.4237 170.48 75 159.5 C 73.7227 170.496 72.556 181.496 71.5 192.5 C 68.2893 192.988 65.456 192.321 63 190.5 C 60.7545 174.204 58.9212 157.87 57.5 141.5 C 56.1667 141.5 54.8333 141.5 53.5 141.5 C 53.1667 134.833 52.8333 134.833 52.5 141.5 C 49.1667 141.5 45.8333 141.5 42.5 141.5 C 42.5 147.5 42.5 153.5 42.5 159.5 C 45.5184 159.335 48.5184 159.502 51.5 160 C 52.4231 162.041 52.7564 164.208 52.5 166.5 C 49.1667 166.5 45.8333 166.5 42.5 166.5 C 42.5 172.833 42.5 179.167 42.5 185.5 C 46.1667 185.5 49.8333 185.5 53.5 185.5 C 53.6741 187.861 54.0074 190.194 54.5 192.5 C 47.5 192.5 40.5 192.5 33.5 192.5 C 33.5 175.5 33.5 158.5 33.5 141.5 C 32.5 141.5 31.5 141.5 30.5 141.5 C 30.3259 139.139 29.9926 136.806 29.5 134.5 Z" stroke-linecap="round" />
</g>
<g transform="matrix(3.16 0 0 3.16 507.66 617)"  >
<path style="stroke: none; stroke-width: 1; stroke-dasharray: none; stroke-linecap: butt; stroke-dashoffset: 0; stroke-linejoin: miter; stroke-miterlimit: 4; fill: rgb(226,232,240); fill-rule: evenodd; opacity: 0.99;" vector-effect="non-scaling-stroke"  transform=" translate(-157, -163.5)" d="M 142.5 134.5 C 147.099 134.2 151.599 134.533 156 135.5 C 158.333 144.833 160.667 154.167 163 163.5 C 163.5 153.839 163.666 144.172 163.5 134.5 C 166.167 134.5 168.833 134.5 171.5 134.5 C 171.5 153.833 171.5 173.167 171.5 192.5 C 168.428 192.817 165.428 192.484 162.5 191.5 C 160.021 182.249 157.854 172.916 156 163.5 C 155.5 173.161 155.334 182.828 155.5 192.5 C 152.5 192.5 149.5 192.5 146.5 192.5 C 146.5 175.5 146.5 158.5 146.5 141.5 C 145.5 141.5 144.5 141.5 143.5 141.5 C 143.552 139.097 143.219 136.764 142.5 134.5 Z" stroke-linecap="round" />
</g>
<g transform="matrix(3.16 0 0 3.16 580.57 545.8)"  >
<path style="stroke: none; stroke-width: 1; stroke-dasharray: none; stroke-linecap: butt; stroke-dashoffset: 0; stroke-linejoin: miter; stroke-miterlimit: 4; fill: rgb(226,232,240); fill-rule: evenodd; opacity: 1;" vector-effect="non-scaling-stroke"  transform=" translate(-180, -140.97)" d="M 176.5 134.5 C 179.898 134.18 183.232 134.513 186.5 135.5 C 184.292 139.417 181.959 143.25 179.5 147 C 177.527 147.495 175.527 147.662 173.5 147.5 C 174.293 143.12 175.293 138.786 176.5 134.5 Z" stroke-linecap="round" />
</g>
<g transform="matrix(3.16 0 0 3.16 636.07 616.98)"  >
<path style="stroke: none; stroke-width: 1; stroke-dasharray: none; stroke-linecap: butt; stroke-dashoffset: 0; stroke-linejoin: miter; stroke-miterlimit: 4; fill: rgb(226,232,240); fill-rule: evenodd; opacity: 0.99;" vector-effect="non-scaling-stroke"  transform=" translate(-197.53, -163.5)" d="M 196.5 133.5 C 201.031 133.634 204.864 135.3 208 138.5 C 209.397 143.708 209.897 149.041 209.5 154.5 C 206.545 155.159 203.545 155.492 200.5 155.5 C 200.666 151.154 200.499 146.821 200 142.5 C 198.301 141.594 196.467 141.261 194.5 141.5 C 194.334 145.846 194.501 150.179 195 154.5 C 200.02 158.522 204.686 162.856 209 167.5 C 209.667 173.833 209.667 180.167 209 186.5 C 206.544 190.983 202.711 193.316 197.5 193.5 C 192.289 193.316 188.456 190.983 186 186.5 C 185.501 180.843 185.334 175.176 185.5 169.5 C 188.448 169.777 191.281 169.444 194 168.5 C 194.499 174.157 194.666 179.824 194.5 185.5 C 196.467 185.739 198.301 185.406 200 184.5 C 200.667 179.833 200.667 175.167 200 170.5 C 195.667 166.833 191.333 163.167 187 159.5 C 185 152.5 185 145.5 187 138.5 C 189.64 135.599 192.807 133.932 196.5 133.5 Z" stroke-linecap="round" />
</g>
<g transform="matrix(3.16 0 0 3.16 757.9 616.79)"  >
<path style="stroke: none; stroke-width: 1; stroke-dasharray: none; stroke-linecap: butt; stroke-dashoffset: 0; stroke-linejoin: miter; stroke-miterlimit: 4; fill: rgb(226,232,240); fill-rule: evenodd; opacity: 1;" vector-effect="non-scaling-stroke"  transform=" translate(-236, -163.44)" d="M 225.5 134.5 C 231.303 133.913 236.803 134.58 242 136.5 C 244.642 155.157 247.142 173.824 249.5 192.5 C 246.5 192.5 243.5 192.5 240.5 192.5 C 240.002 187.848 239.669 183.181 239.5 178.5 C 237.167 178.5 234.833 178.5 232.5 178.5 C 232.083 182.835 231.583 187.168 231 191.5 C 228.281 192.444 225.448 192.777 222.5 192.5 C 224.059 175.523 226.392 158.69 229.5 142 C 228.552 141.517 227.552 141.351 226.5 141.5 C 226.326 139.139 225.993 136.806 225.5 134.5 Z M 235.5 153.5 C 236.459 159.242 237.459 165.075 238.5 171 C 236.866 171.494 235.199 171.66 233.5 171.5 C 234.331 165.521 234.997 159.521 235.5 153.5 Z" stroke-linecap="round" />
</g>
<g transform="matrix(3.16 0 0 3.16 826.15 616.89)"  >
<path style="stroke: none; stroke-width: 1; stroke-dasharray: none; stroke-linecap: butt; stroke-dashoffset: 0; stroke-linejoin: miter; stroke-miterlimit: 4; fill: rgb(226,232,240); fill-rule: evenodd; opacity: 1;" vector-effect="non-scaling-stroke"  transform=" translate(-257.54, -163.47)" d="M 245.5 134.5 C 253.174 134.334 260.841 134.5 268.5 135 C 269.423 137.041 269.756 139.208 269.5 141.5 C 267.167 141.5 264.833 141.5 262.5 141.5 C 262.5 158.5 262.5 175.5 262.5 192.5 C 259.5 192.5 256.5 192.5 253.5 192.5 C 253.5 175.5 253.5 158.5 253.5 141.5 C 251.167 141.5 248.833 141.5 246.5 141.5 C 246.326 139.139 245.993 136.806 245.5 134.5 Z" stroke-linecap="round" />
</g>
<g transform="matrix(3.16 0 0 3.16 904.84 616.98)"  >
<path style="stroke: none; stroke-width: 1; stroke-dasharray: none; stroke-linecap: butt; stroke-dashoffset: 0; stroke-linejoin: miter; stroke-miterlimit: 4; fill: rgb(226,232,240); fill-rule: evenodd; opacity: 1;" vector-effect="non-scaling-stroke"  transform=" translate(-282.38, -163.5)" d="M 270.5 134.5 C 278.167 134.5 285.833 134.5 293.5 134.5 C 293.674 136.861 294.007 139.194 294.5 141.5 C 291.813 141.336 289.146 141.503 286.5 142 C 287.492 158.756 287.825 175.589 287.5 192.5 C 284.5 192.5 281.5 192.5 278.5 192.5 C 278.5 175.5 278.5 158.5 278.5 141.5 C 272.073 143.238 269.406 140.905 270.5 134.5 Z" stroke-linecap="round" />
</g>
<g transform="matrix(3.16 0 0 3.16 963.87 616.98)"  >
<path style="stroke: none; stroke-width: 1; stroke-dasharray: none; stroke-linecap: butt; stroke-dashoffset: 0; stroke-linejoin: miter; stroke-miterlimit: 4; fill: rgb(226,232,240); fill-rule: evenodd; opacity: 0.99;" vector-effect="non-scaling-stroke"  transform=" translate(-301, -163.5)" d="M 296.5 134.5 C 299.5 134.5 302.5 134.5 305.5 134.5 C 305.5 153.833 305.5 173.167 305.5 192.5 C 302.5 192.5 299.5 192.5 296.5 192.5 C 296.5 173.167 296.5 153.833 296.5 134.5 Z" stroke-linecap="round" />
</g>
<g transform="matrix(3.16 0 0 3.16 1031.9 616.99)"  >
<path style="stroke: none; stroke-width: 1; stroke-dasharray: none; stroke-linecap: butt; stroke-dashoffset: 0; stroke-linejoin: miter; stroke-miterlimit: 4; fill: rgb(226,232,240); fill-rule: evenodd; opacity: 0.99;" vector-effect="non-scaling-stroke"  transform=" translate(-322.49, -163.5)" d="M 334.5 139.5 C 334.5 145.167 334.5 150.833 334.5 156.5 C 331.545 157.159 328.545 157.492 325.5 157.5 C 325.5 152.167 325.5 146.833 325.5 141.5 C 323.533 141.261 321.699 141.594 320 142.5 C 319.333 156.5 319.333 170.5 320 184.5 C 321.699 185.406 323.533 185.739 325.5 185.5 C 325.5 180.167 325.5 174.833 325.5 169.5 C 328.482 169.037 331.482 168.704 334.5 168.5 C 334.5 174.5 334.5 180.5 334.5 186.5 C 329.181 193.328 322.514 194.828 314.5 191 C 312.951 189.786 311.785 188.286 311 186.5 C 310.833 178.833 310.667 171.167 310.5 163.5 C 310.362 155.069 310.862 146.735 312 138.5 C 319.747 132.107 327.247 132.44 334.5 139.5 Z" stroke-linecap="round" />
</g>
<g transform="matrix(3.16 0 0 3.16 538.13 754.96)"  >
<path style="stroke: none; stroke-width: 1; stroke-dasharray: none; stroke-linecap: butt; stroke-dashoffset: 0; stroke-linejoin: miter; stroke-miterlimit: 4; fill: rgb(226,232,240); fill-rule: evenodd; opacity: 1;" vector-effect="non-scaling-stroke"  transform=" translate(-167, -207)" d="M -0.5 202.5 C 111.167 202.5 222.833 202.5 334.5 202.5 C 334.5 205.5 334.5 208.5 334.5 211.5 C 222.833 211.5 111.167 211.5 -0.5 211.5 C -0.5 208.5 -0.5 205.5 -0.5 202.5 Z" stroke-linecap="round" />
</g>
<g transform="matrix(3.16 0 0 3.16 464.97 838.94)"  >
<path style="stroke: none; stroke-width: 1; stroke-dasharray: none; stroke-linecap: butt; stroke-dashoffset: 0; stroke-linejoin: miter; stroke-miterlimit: 4; fill: rgb(226,232,240); fill-rule: evenodd; opacity: 0.65;" vector-effect="non-scaling-stroke"  transform=" translate(-143.5, -233.5)" d="M 140.5 231.5 C 142.5 231.5 144.5 231.5 146.5 231.5 C 146.5 232.833 146.5 234.167 146.5 235.5 C 144.5 235.5 142.5 235.5 140.5 235.5 C 140.5 234.167 140.5 232.833 140.5 231.5 Z" stroke-linecap="round" />
</g>
<g transform="matrix(3.16 0 0 3.16 621.73 867.38)"  >
<path style="stroke: none; stroke-width: 1; stroke-dasharray: none; stroke-linecap: butt; stroke-dashoffset: 0; stroke-linejoin: miter; stroke-miterlimit: 4; fill: rgb(226,232,240); fill-rule: evenodd; opacity: 0.77;" vector-effect="non-scaling-stroke"  transform=" translate(-193, -242.5)" d="M 185.5 231.5 C 190.5 231.5 195.5 231.5 200.5 231.5 C 200.5 233.167 200.5 234.833 200.5 236.5 C 197.167 236.5 193.833 236.5 190.5 236.5 C 190.5 237.5 190.5 238.5 190.5 239.5 C 193.167 239.5 195.833 239.5 198.5 239.5 C 198.5 241.167 198.5 242.833 198.5 244.5 C 195.833 244.5 193.167 244.5 190.5 244.5 C 190.5 245.833 190.5 247.167 190.5 248.5 C 193.833 248.5 197.167 248.5 200.5 248.5 C 200.5 250.167 200.5 251.833 200.5 253.5 C 195.5 253.5 190.5 253.5 185.5 253.5 C 185.5 246.167 185.5 238.833 185.5 231.5 Z" stroke-linecap="round" />
</g>
<g transform="matrix(3.16 0 0 3.16 670.84 867.38)"  >
<path style="stroke: none; stroke-width: 1; stroke-dasharray: none; stroke-linecap: butt; stroke-dashoffset: 0; stroke-linejoin: miter; stroke-miterlimit: 4; fill: rgb(226,232,240); fill-rule: evenodd; opacity: 0.9;" vector-effect="non-scaling-stroke"  transform=" translate(-208.5, -242.5)" d="M 210.5 231.5 C 212.167 231.5 213.833 231.5 215.5 231.5 C 215.5 238.833 215.5 246.167 215.5 253.5 C 211.843 252.358 208.177 252.191 204.5 253 C 203.667 252.167 202.833 251.333 202 250.5 C 201.333 246.833 201.333 243.167 202 239.5 C 204.061 236.872 206.561 236.205 209.5 237.5 C 210.466 235.604 210.799 233.604 210.5 231.5 Z M 206.5 241.5 C 207.5 241.5 208.5 241.5 209.5 241.5 C 209.421 242.93 209.754 244.264 210.5 245.5 C 209.923 247.55 208.59 248.55 206.5 248.5 C 206.5 246.167 206.5 243.833 206.5 241.5 Z" stroke-linecap="round" />
</g>
<g transform="matrix(3.16 0 0 3.16 875.21 838.94)"  >
<path style="stroke: none; stroke-width: 1; stroke-dasharray: none; stroke-linecap: butt; stroke-dashoffset: 0; stroke-linejoin: miter; stroke-miterlimit: 4; fill: rgb(226,232,240); fill-rule: evenodd; opacity: 0.56;" vector-effect="non-scaling-stroke"  transform=" translate(-273, -233.5)" d="M 270.5 231.5 C 272.167 231.5 273.833 231.5 275.5 231.5 C 275.5 232.833 275.5 234.167 275.5 235.5 C 273.833 235.5 272.167 235.5 270.5 235.5 C 270.5 234.167 270.5 232.833 270.5 231.5 Z" stroke-linecap="round" />
</g>
<g transform="matrix(3.16 0 0 3.16 257.49 838.94)"  >
<path style="stroke: none; stroke-width: 1; stroke-dasharray: none; stroke-linecap: butt; stroke-dashoffset: 0; stroke-linejoin: miter; stroke-miterlimit: 4; fill: rgb(226,232,240); fill-rule: evenodd; opacity: 0.43;" vector-effect="non-scaling-stroke"  transform=" translate(-78, -233.5)" d="M 75.5 231.5 C 77.1667 231.5 78.8333 231.5 80.5 231.5 C 80.5 232.833 80.5 234.167 80.5 235.5 C 78.8333 235.5 77.1667 235.5 75.5 235.5 C 75.5 234.167 75.5 232.833 75.5 231.5 Z" stroke-linecap="round" />
</g>
<g transform="matrix(3.16 0 0 3.16 122.82 867.38)"  >
<path style="stroke: none; stroke-width: 1; stroke-dasharray: none; stroke-linecap: butt; stroke-dashoffset: 0; stroke-linejoin: miter; stroke-miterlimit: 4; fill: rgb(226,232,240); fill-rule: evenodd; opacity: 0.9;" vector-effect="non-scaling-stroke"  transform=" translate(-35.5, -242.5)" d="M 28.5 231.5 C 33.1667 231.5 37.8333 231.5 42.5 231.5 C 42.5 233.167 42.5 234.833 42.5 236.5 C 39.5 236.5 36.5 236.5 33.5 236.5 C 33.5 237.5 33.5 238.5 33.5 239.5 C 36.1667 239.5 38.8333 239.5 41.5 239.5 C 41.5 241.167 41.5 242.833 41.5 244.5 C 38.8333 244.5 36.1667 244.5 33.5 244.5 C 33.5 245.833 33.5 247.167 33.5 248.5 C 36.5 248.5 39.5 248.5 42.5 248.5 C 42.5 250.167 42.5 251.833 42.5 253.5 C 37.8333 253.5 33.1667 253.5 28.5 253.5 C 28.5 246.167 28.5 238.833 28.5 231.5 Z" stroke-linecap="round" />
</g>
<g transform="matrix(3.16 0 0 3.16 846.67 870.62)"  >
<path style="stroke: none; stroke-width: 1; stroke-dasharray: none; stroke-linecap: butt; stroke-dashoffset: 0; stroke-linejoin: miter; stroke-miterlimit: 4; fill: rgb(226,232,240); fill-rule: evenodd; opacity: 0.84;" vector-effect="non-scaling-stroke"  transform=" translate(-264, -243.51)" d="M 261.5 233.5 C 263.167 233.5 264.833 233.5 266.5 233.5 C 266.579 235.666 267.246 237.666 268.5 239.5 C 267.575 241.236 266.908 243.07 266.5 245 C 267.545 247.77 268.212 250.603 268.5 253.5 C 266.064 253.683 263.897 253.016 262 251.5 C 261.868 247.338 261.034 243.338 259.5 239.5 C 260.754 237.666 261.421 235.666 261.5 233.5 Z" stroke-linecap="round" />
</g>
<g transform="matrix(3.16 0 0 3.16 173.69 875.3)"  >
<path style="stroke: none; stroke-width: 1; stroke-dasharray: none; stroke-linecap: butt; stroke-dashoffset: 0; stroke-linejoin: miter; stroke-miterlimit: 4; fill: rgb(226,232,240); fill-rule: evenodd; opacity: 0.83;" vector-effect="non-scaling-stroke"  transform=" translate(-51.56, -245)" d="M 44.5 236.5 C 47.3833 237.31 50.2166 237.31 53 236.5 C 54.4728 236.903 55.8061 237.57 57 238.5 C 58.3885 243.372 58.8885 248.372 58.5 253.5 C 56.8333 253.5 55.1667 253.5 53.5 253.5 C 53.6653 249.818 53.4986 246.152 53 242.5 C 52 241.167 51 241.167 50 242.5 C 49.5014 246.152 49.3347 249.818 49.5 253.5 C 47.8333 253.5 46.1667 253.5 44.5 253.5 C 44.5 247.833 44.5 242.167 44.5 236.5 Z" stroke-linecap="round" />
</g>
<g transform="matrix(3.16 0 0 3.16 220.63 883.2)"  >
<path style="stroke: none; stroke-width: 1; stroke-dasharray: none; stroke-linecap: butt; stroke-dashoffset: 0; stroke-linejoin: miter; stroke-miterlimit: 4; fill: rgb(226,232,240); fill-rule: evenodd; opacity: 0.87;" vector-effect="non-scaling-stroke"  transform=" translate(-66.38, -247.5)" d="M 69.5 258.5 C 67.1667 258.5 64.8333 258.5 62.5 258.5 C 59.6022 254.218 60.7689 252.885 66 254.5 C 67.2798 254.387 68.1131 253.72 68.5 252.5 C 60.4788 252.915 57.6455 248.915 60 240.5 C 60.8743 238.224 62.5409 236.89 65 236.5 C 67.7354 237.006 70.5687 237.006 73.5 236.5 C 73.6662 242.509 73.4995 248.509 73 254.5 C 72.3103 256.35 71.1436 257.684 69.5 258.5 Z M 65.5 241.5 C 68.5131 242.356 69.1797 244.189 67.5 247 C 66.552 247.483 65.552 247.649 64.5 247.5 C 64.3253 245.379 64.6586 243.379 65.5 241.5 Z" stroke-linecap="round" />
</g>
<g transform="matrix(3.16 0 0 3.16 293.8 875.3)"  >
<path style="stroke: none; stroke-width: 1; stroke-dasharray: none; stroke-linecap: butt; stroke-dashoffset: 0; stroke-linejoin: miter; stroke-miterlimit: 4; fill: rgb(226,232,240); fill-rule: evenodd; opacity: 0.83;" vector-effect="non-scaling-stroke"  transform=" translate(-89.48, -245)" d="M 83.5 236.5 C 86.089 237.127 88.589 237.127 91 236.5 C 92.982 236.99 94.6487 237.99 96 239.5 C 96.4992 244.155 96.6658 248.821 96.5 253.5 C 94.8333 253.5 93.1667 253.5 91.5 253.5 C 91.6653 249.818 91.4986 246.152 91 242.5 C 90 241.167 89 241.167 88 242.5 C 87.5014 246.152 87.3347 249.818 87.5 253.5 C 85.8333 253.5 84.1667 253.5 82.5 253.5 C 82.2143 247.741 82.5476 242.075 83.5 236.5 Z" stroke-linecap="round" />
</g>
<g transform="matrix(3.16 0 0 3.16 366.92 875.18)"  >
<path style="stroke: none; stroke-width: 1; stroke-dasharray: none; stroke-linecap: butt; stroke-dashoffset: 0; stroke-linejoin: miter; stroke-miterlimit: 4; fill: rgb(226,232,240); fill-rule: evenodd; opacity: 0.84;" vector-effect="non-scaling-stroke"  transform=" translate(-112.58, -244.96)" d="M 103.5 236.5 C 107.992 236.323 110.992 238.323 112.5 242.5 C 115.033 237.155 119.033 235.655 124.5 238 C 126.585 240.419 127.585 243.253 127.5 246.5 C 124.15 246.335 120.817 246.502 117.5 247 C 119.333 248.788 121.333 248.954 123.5 247.5 C 124.833 248.167 125.833 249.167 126.5 250.5 C 123.302 253.809 119.635 254.309 115.5 252 C 114.13 250.559 113.13 248.892 112.5 247 C 109.167 246.333 105.833 246.333 102.5 247 C 104.333 248.788 106.333 248.954 108.5 247.5 C 112.412 249.453 112.412 251.287 108.5 253 C 98.7254 253.451 95.5587 248.951 99 239.5 C 100.409 238.219 101.909 237.219 103.5 236.5 Z M 103.5 241.5 C 104.675 241.281 105.675 241.614 106.5 242.5 C 105.277 243.614 103.944 243.781 102.5 243 C 103.056 242.617 103.389 242.117 103.5 241.5 Z M 118.5 241.5 C 119.675 241.281 120.675 241.614 121.5 242.5 C 120.277 243.614 118.944 243.781 117.5 243 C 118.056 242.617 118.389 242.117 118.5 241.5 Z" stroke-linecap="round" />
</g>
<g transform="matrix(3.16 0 0 3.16 446.07 875.33)"  >
<path style="stroke: none; stroke-width: 1; stroke-dasharray: none; stroke-linecap: butt; stroke-dashoffset: 0; stroke-linejoin: miter; stroke-miterlimit: 4; fill: rgb(226,232,240); fill-rule: evenodd; opacity: 0.85;" vector-effect="non-scaling-stroke"  transform=" translate(-137.56, -245.01)" d="M 128.5 236.5 C 134.171 236.334 139.838 236.5 145.5 237 C 146.473 242.407 146.807 247.907 146.5 253.5 C 144.533 253.739 142.699 253.406 141 252.5 C 140.667 248.5 140.333 244.5 140 240.5 C 139.311 241.357 138.478 242.023 137.5 242.5 C 136.28 241.289 135.113 241.289 134 242.5 C 133.501 246.152 133.335 249.818 133.5 253.5 C 131.833 253.5 130.167 253.5 128.5 253.5 C 128.5 247.833 128.5 242.167 128.5 236.5 Z" stroke-linecap="round" />
</g>
<g transform="matrix(3.16 0 0 3.16 501.46 875.3)"  >
<path style="stroke: none; stroke-width: 1; stroke-dasharray: none; stroke-linecap: butt; stroke-dashoffset: 0; stroke-linejoin: miter; stroke-miterlimit: 4; fill: rgb(226,232,240); fill-rule: evenodd; opacity: 0.87;" vector-effect="non-scaling-stroke"  transform=" translate(-155.03, -245)" d="M 148.5 236.5 C 151.089 237.127 153.589 237.127 156 236.5 C 157.982 236.99 159.649 237.99 161 239.5 C 161.499 244.155 161.666 248.821 161.5 253.5 C 159.833 253.5 158.167 253.5 156.5 253.5 C 156.5 249.5 156.5 245.5 156.5 241.5 C 155.5 241.5 154.5 241.5 153.5 241.5 C 153.5 245.5 153.5 249.5 153.5 253.5 C 151.833 253.5 150.167 253.5 148.5 253.5 C 148.5 247.833 148.5 242.167 148.5 236.5 Z" stroke-linecap="round" />
</g>
<g transform="matrix(3.16 0 0 3.16 550.47 883.2)"  >
<path style="stroke: none; stroke-width: 1; stroke-dasharray: none; stroke-linecap: butt; stroke-dashoffset: 0; stroke-linejoin: miter; stroke-miterlimit: 4; fill: rgb(226,232,240); fill-rule: evenodd; opacity: 0.85;" vector-effect="non-scaling-stroke"  transform=" translate(-170.5, -247.5)" d="M 173.5 258.5 C 170.833 258.5 168.167 258.5 165.5 258.5 C 162.894 257.15 162.894 255.65 165.5 254 C 166.899 253.405 168.232 253.572 169.5 254.5 C 170.308 254.192 170.975 253.692 171.5 253 C 168.344 253.053 165.844 251.886 164 249.5 C 163.333 246.167 163.333 242.833 164 239.5 C 165.351 237.99 167.018 236.99 169 236.5 C 171.671 236.672 174.338 237.005 177 237.5 C 177.667 242.833 177.667 248.167 177 253.5 C 176.003 255.323 174.836 256.99 173.5 258.5 Z M 169.5 241.5 C 171.308 242.918 171.975 244.918 171.5 247.5 C 170.5 247.5 169.5 247.5 168.5 247.5 C 168.325 245.379 168.659 243.379 169.5 241.5 Z" stroke-linecap="round" />
</g>
<g transform="matrix(3.16 0 0 3.16 719.8 875.21)"  >
<path style="stroke: none; stroke-width: 1; stroke-dasharray: none; stroke-linecap: butt; stroke-dashoffset: 0; stroke-linejoin: miter; stroke-miterlimit: 4; fill: rgb(226,232,240); fill-rule: evenodd; opacity: 0.88;" vector-effect="non-scaling-stroke"  transform=" translate(-223.95, -244.97)" d="M 217.5 236.5 C 219.167 236.5 220.833 236.5 222.5 236.5 C 222.5 240.5 222.5 244.5 222.5 248.5 C 223.5 248.5 224.5 248.5 225.5 248.5 C 225.335 244.818 225.501 241.152 226 237.5 C 227.356 236.62 228.856 236.286 230.5 236.5 C 230.5 242.167 230.5 247.833 230.5 253.5 C 227.762 252.763 225.095 252.763 222.5 253.5 C 220.893 253.363 219.559 252.696 218.5 251.5 C 217.552 246.565 217.219 241.565 217.5 236.5 Z" stroke-linecap="round" />
</g>
<g transform="matrix(3.16 0 0 3.16 908.41 875.3)"  >
<path style="stroke: none; stroke-width: 1; stroke-dasharray: none; stroke-linecap: butt; stroke-dashoffset: 0; stroke-linejoin: miter; stroke-miterlimit: 4; fill: rgb(226,232,240); fill-rule: evenodd; opacity: 0.87;" vector-effect="non-scaling-stroke"  transform=" translate(-283.5, -245)" d="M 282.5 236.5 C 288.112 236.611 290.778 239.444 290.5 245 C 291.078 250.033 288.912 252.866 284 253.5 C 276.613 251.336 274.613 246.669 278 239.5 C 279.409 238.219 280.909 237.219 282.5 236.5 Z M 282.5 241.5 C 283.5 241.5 284.5 241.5 285.5 241.5 C 285.5 243.833 285.5 246.167 285.5 248.5 C 283.41 248.55 282.077 247.55 281.5 245.5 C 282.246 244.264 282.579 242.93 282.5 241.5 Z" stroke-linecap="round" />
</g>
<g transform="matrix(3.16 0 0 3.16 959.26 875.42)"  >
<path style="stroke: none; stroke-width: 1; stroke-dasharray: none; stroke-linecap: butt; stroke-dashoffset: 0; stroke-linejoin: miter; stroke-miterlimit: 4; fill: rgb(226,232,240); fill-rule: evenodd; opacity: 0.89;" vector-effect="non-scaling-stroke"  transform=" translate(-299.55, -245.04)" d="M 292.5 236.5 C 295.089 237.127 297.589 237.127 300 236.5 C 301.763 236.975 303.43 237.642 305 238.5 C 306.325 243.401 306.825 248.401 306.5 253.5 C 304.533 253.739 302.699 253.406 301 252.5 C 300.825 248.789 300.325 245.122 299.5 241.5 C 298.914 241.709 298.414 242.043 298 242.5 C 297.501 246.152 297.335 249.818 297.5 253.5 C 295.833 253.5 294.167 253.5 292.5 253.5 C 292.5 247.833 292.5 242.167 292.5 236.5 Z" stroke-linecap="round" />
</g>
<g transform="matrix(3.16 0 0 3.16 875.21 875.3)"  >
<path style="stroke: none; stroke-width: 1; stroke-dasharray: none; stroke-linecap: butt; stroke-dashoffset: 0; stroke-linejoin: miter; stroke-miterlimit: 4; fill: rgb(226,232,240); fill-rule: evenodd; opacity: 1;" vector-effect="non-scaling-stroke"  transform=" translate(-273, -245)" d="M 270.5 236.5 C 272.167 236.5 273.833 236.5 275.5 236.5 C 275.5 242.167 275.5 247.833 275.5 253.5 C 273.833 253.5 272.167 253.5 270.5 253.5 C 270.5 247.833 270.5 242.167 270.5 236.5 Z" stroke-linecap="round" />
</g>
<g transform="matrix(3.16 0 0 3.16 257.49 875.3)"  >
<path style="stroke: none; stroke-width: 1; stroke-dasharray: none; stroke-linecap: butt; stroke-dashoffset: 0; stroke-linejoin: miter; stroke-miterlimit: 4; fill: rgb(226,232,240); fill-rule: evenodd; opacity: 0.95;" vector-effect="non-scaling-stroke"  transform=" translate(-78, -245)" d="M 75.5 236.5 C 77.1667 236.5 78.8333 236.5 80.5 236.5 C 80.5 242.167 80.5 247.833 80.5 253.5 C 78.8333 253.5 77.1667 253.5 75.5 253.5 C 75.5 247.833 75.5 242.167 75.5 236.5 Z" stroke-linecap="round" />
</g>
<g transform="matrix(3.16 0 0 3.16 788.53 875.3)"  >
<path style="stroke: none; stroke-width: 1; stroke-dasharray: none; stroke-linecap: butt; stroke-dashoffset: 0; stroke-linejoin: miter; stroke-miterlimit: 4; fill: rgb(226,232,240); fill-rule: evenodd; opacity: 0.85;" vector-effect="non-scaling-stroke"  transform=" translate(-245.67, -245)" d="M 237.5 236.5 C 240.311 236.571 242.978 237.238 245.5 238.5 C 249.949 235.658 254.116 235.991 258 239.5 C 258.499 244.155 258.666 248.821 258.5 253.5 C 255.762 252.763 253.095 252.763 250.5 253.5 C 248.726 253.113 247.059 252.447 245.5 251.5 C 235.888 255.058 231.721 251.724 233 241.5 C 234.025 239.313 235.525 237.646 237.5 236.5 Z M 244.5 240.5 C 246.044 240.703 247.378 241.37 248.5 242.5 C 250.198 241.319 251.865 241.319 253.5 242.5 C 251.187 243.273 248.854 243.94 246.5 244.5 C 245.833 246.167 245.167 247.833 244.5 249.5 C 243.522 249.023 242.689 248.357 242 247.5 C 240.951 248.517 239.784 248.684 238.5 248 C 237.424 246.274 237.257 244.441 238 242.5 C 239.458 241.253 240.958 241.253 242.5 242.5 C 243.522 242.145 244.189 241.478 244.5 240.5 Z M 251.5 246.5 C 252.376 246.369 253.043 246.702 253.5 247.5 C 252.277 248.614 250.944 248.781 249.5 248 C 250.416 247.722 251.082 247.222 251.5 246.5 Z" stroke-linecap="round" />
</g>
</svg>