<svg width="843" height="241" viewBox="0 0 843 241" fill="none" xmlns="http://www.w3.org/2000/svg">
<path d="M400.184 66.816H411.896V73.056C413.912 70.656 416.504 68.736 419.384 67.488C422.456 66.24 425.72 65.568 429.368 65.568C433.208 65.568 436.76 66.24 439.928 67.584C443.192 69.024 445.976 70.944 448.376 73.344C450.776 75.84 452.6 78.72 453.944 82.176C455.192 85.44 455.864 89.184 455.864 93.216C455.864 97.248 455.192 100.992 453.848 104.448C452.504 107.808 450.68 110.784 448.28 113.28C445.88 115.776 443.096 117.696 439.928 119.136C436.664 120.576 433.112 121.248 429.272 121.248C426.008 121.248 423.128 120.768 420.536 119.808C417.944 118.752 415.448 117.216 412.952 115.008V137.76H400.184V66.816ZM433.784 108.288C435.608 107.424 437.24 106.368 438.584 104.832C440.024 103.488 441.08 101.76 441.848 99.84C442.616 97.824 443 95.712 443 93.504C443 91.104 442.616 88.992 441.848 86.976C441.08 84.96 440.024 83.328 438.584 81.792C437.144 80.448 435.512 79.296 433.592 78.528C431.768 77.664 429.656 77.28 427.448 77.28C425.24 77.28 423.224 77.664 421.4 78.528C419.576 79.392 417.944 80.544 416.504 81.984C415.16 83.424 414.104 85.152 413.336 87.168C412.568 89.184 412.184 91.296 412.184 93.6C412.184 95.808 412.568 97.92 413.432 99.84C414.2 101.856 415.256 103.488 416.696 105.024C418.136 106.368 419.768 107.52 421.688 108.288C423.512 109.152 425.624 109.536 427.832 109.536C429.944 109.536 431.96 109.152 433.784 108.288Z" fill="white"/>
<path d="M463.746 49.056H476.514V120H463.746V49.056Z" fill="white"/>
<path d="M486.423 82.368C487.767 78.912 489.591 75.936 492.087 73.536C494.391 71.04 497.271 69.12 500.631 67.68C503.991 66.24 507.543 65.568 511.479 65.568C515.415 65.568 518.679 66.24 521.463 67.584C524.151 68.832 526.647 70.944 528.855 73.92V66.816H540.567V120H528.855V113.088C526.263 116.064 523.671 118.08 520.887 119.424C518.199 120.576 514.935 121.248 511.191 121.248C507.255 121.248 503.703 120.576 500.439 119.232C497.175 117.792 494.391 115.872 491.991 113.472C489.591 110.976 487.767 108.096 486.423 104.64C485.079 101.376 484.407 97.632 484.407 93.6C484.407 89.472 485.079 85.728 486.423 82.368ZM498.423 100.224C499.191 102.144 500.247 103.776 501.687 105.216C503.031 106.56 504.663 107.616 506.679 108.384C508.599 109.152 510.711 109.536 513.015 109.536C515.319 109.536 517.431 109.152 519.351 108.384C521.175 107.616 522.807 106.56 524.151 105.12C525.591 103.68 526.647 102.048 527.415 100.032C528.087 98.112 528.471 96 528.471 93.6C528.471 91.2 528.087 89.088 527.319 86.976C526.551 85.056 525.495 83.328 524.055 81.792C522.615 80.448 520.983 79.296 518.967 78.528C517.047 77.664 514.935 77.28 512.631 77.28C510.423 77.28 508.311 77.664 506.487 78.528C504.663 79.392 503.031 80.544 501.687 81.984C500.247 83.424 499.191 85.248 498.423 87.168C497.655 89.28 497.271 91.488 497.271 93.888C497.271 96.192 497.655 98.304 498.423 100.224Z" fill="white"/>
<path d="M550.934 66.816H562.742V71.904C565.142 69.6 567.446 67.968 569.75 67.008C571.958 66.048 574.646 65.568 577.718 65.568C584.822 65.568 590.006 67.584 593.27 71.808C596.534 75.84 598.166 82.464 598.166 91.488V120H585.398V93.984C585.398 87.936 584.63 83.712 582.998 81.12C581.462 78.528 578.87 77.28 575.222 77.28C571.19 77.28 568.214 78.72 566.486 81.408C564.566 84.288 563.702 88.704 563.702 94.944V120H550.934V66.816Z" fill="white"/>
<path d="M659.957 104.256C659.093 106.752 657.845 109.056 656.309 111.168C654.581 113.184 652.661 115.008 650.453 116.544C648.245 117.984 645.749 119.136 643.061 120C640.373 120.864 637.589 121.248 634.613 121.248C630.581 121.248 626.837 120.576 623.285 119.136C619.733 117.696 616.757 115.776 614.069 113.28C611.573 110.784 609.461 107.904 608.021 104.448C606.581 101.184 605.813 97.536 605.813 93.6C605.813 89.664 606.581 86.016 607.925 82.56C609.461 79.2 611.381 76.224 613.877 73.728C616.469 71.136 619.445 69.12 622.901 67.776C626.261 66.24 629.909 65.568 633.845 65.568C637.781 65.568 641.525 66.24 644.789 67.776C648.245 69.12 651.125 71.136 653.525 73.728C655.925 76.224 657.845 79.2 659.189 82.752C660.629 86.304 661.301 90.048 661.301 94.176C661.301 95.232 661.301 96 661.205 96.768C661.109 97.344 661.013 98.208 660.821 99.072H619.637C620.021 100.704 620.597 102.144 621.557 103.488C622.325 104.736 623.477 105.888 624.725 106.752C625.973 107.616 627.509 108.288 629.045 108.864C630.773 109.248 632.501 109.536 634.325 109.536C636.917 109.536 639.125 109.152 640.949 108.288C642.677 107.52 644.405 106.176 646.037 104.256H659.957ZM648.725 87.84C647.861 84.384 646.229 81.792 643.733 79.968C641.237 78.144 637.973 77.28 634.037 77.28C632.117 77.28 630.389 77.472 628.853 77.952C627.221 78.432 625.781 79.104 624.629 79.968C623.285 80.832 622.229 81.984 621.365 83.328C620.501 84.576 619.733 86.112 619.253 87.84H648.725Z" fill="white"/>
<path d="M671.457 78.432H665.217V66.816H671.457V49.056H684.225V66.816H691.905V78.432H684.225V120H671.457V78.432Z" fill="white"/>
<path d="M697.735 82.368C699.079 78.912 700.903 75.936 703.399 73.536C705.703 71.04 708.583 69.12 711.943 67.68C715.303 66.24 718.855 65.568 722.791 65.568C726.727 65.568 729.991 66.24 732.775 67.584C735.463 68.832 737.959 70.944 740.167 73.92V66.816H751.879V120H740.167V113.088C737.575 116.064 734.983 118.08 732.199 119.424C729.511 120.576 726.247 121.248 722.503 121.248C718.567 121.248 715.015 120.576 711.751 119.232C708.487 117.792 705.703 115.872 703.303 113.472C700.903 110.976 699.079 108.096 697.735 104.64C696.391 101.376 695.719 97.632 695.719 93.6C695.719 89.472 696.391 85.728 697.735 82.368ZM709.735 100.224C710.503 102.144 711.559 103.776 712.999 105.216C714.343 106.56 715.975 107.616 717.991 108.384C719.911 109.152 722.023 109.536 724.327 109.536C726.631 109.536 728.743 109.152 730.663 108.384C732.487 107.616 734.119 106.56 735.463 105.12C736.903 103.68 737.959 102.048 738.727 100.032C739.399 98.112 739.783 96 739.783 93.6C739.783 91.2 739.399 89.088 738.631 86.976C737.863 85.056 736.807 83.328 735.367 81.792C733.927 80.448 732.295 79.296 730.279 78.528C728.359 77.664 726.247 77.28 723.943 77.28C721.735 77.28 719.623 77.664 717.799 78.528C715.975 79.392 714.343 80.544 712.999 81.984C711.559 83.424 710.503 85.248 709.735 87.168C708.967 89.28 708.583 91.488 708.583 93.888C708.583 96.192 708.967 98.304 709.735 100.224Z" fill="white"/>
<path d="M762.247 66.816H773.958V72C774.822 70.752 775.687 69.696 776.455 68.832C777.223 67.968 778.087 67.392 779.047 66.816C780.007 66.432 781.062 66.048 782.214 65.856C783.366 65.664 784.806 65.568 786.438 65.568V77.856C782.598 77.856 779.719 78.912 777.799 81.024C775.975 83.04 775.015 86.208 775.015 90.432V120H762.247V66.816Z" fill="white"/>
<path d="M808.526 115.008L789.038 66.816H803.63L815.438 101.28L828.302 66.816H842.99L812.27 137.76H798.542L808.526 115.008Z" fill="white"/>
<path d="M399.8 161.176C401.144 157.72 403.064 154.744 405.368 152.152C407.864 149.56 410.648 147.544 413.816 146.104C417.08 144.664 420.536 143.896 424.28 143.896C427.64 143.896 430.712 144.472 433.592 145.624C436.568 146.776 438.968 148.408 440.888 150.52V128.056H453.656V199H441.944V192.088C439.352 194.968 436.664 197.08 433.976 198.328C431.192 199.576 428.024 200.248 424.376 200.248C420.632 200.248 417.08 199.576 413.816 198.04C410.552 196.696 407.768 194.68 405.368 192.184C402.968 189.688 401.144 186.712 399.8 183.352C398.36 179.992 397.688 176.248 397.688 172.312C397.688 168.376 398.36 164.632 399.8 161.176ZM411.8 178.456C412.664 180.376 413.72 182.2 415.16 183.64C416.6 185.176 418.232 186.328 420.152 187.288C422.072 188.056 424.184 188.536 426.392 188.536C428.6 188.536 430.616 188.152 432.44 187.288C434.264 186.424 435.896 185.272 437.336 183.832C438.776 182.392 439.832 180.664 440.696 178.648C441.464 176.632 441.848 174.52 441.848 172.216C441.848 169.816 441.464 167.512 440.696 165.592C439.832 163.48 438.776 161.752 437.336 160.312C435.896 158.872 434.264 157.72 432.248 156.856C430.328 155.992 428.216 155.608 425.912 155.608C423.704 155.608 421.688 155.992 419.864 156.856C418.04 157.72 416.408 158.872 414.968 160.312C413.624 161.752 412.568 163.48 411.704 165.496C410.936 167.512 410.552 169.624 410.552 171.928C410.552 174.232 410.936 176.344 411.8 178.456Z" fill="white"/>
<path d="M464.028 145.816H475.74V151C476.604 149.752 477.468 148.696 478.236 147.832C479.004 146.968 479.868 146.392 480.828 145.816C481.788 145.432 482.844 145.048 483.996 144.856C485.148 144.664 486.588 144.568 488.22 144.568V156.856C484.38 156.856 481.5 157.912 479.58 160.024C477.756 162.04 476.796 165.208 476.796 169.432V199H464.028V145.816Z" fill="white"/>
<path d="M495.715 145.816H508.483V199H495.715V145.816ZM495.715 128.056H508.483V140.056H495.715V128.056Z" fill="white"/>
<path d="M513.976 145.816H528.183L540.471 181.048L552.568 145.816H566.968L545.56 199H535.383L513.976 145.816Z" fill="white"/>
<path d="M624.051 183.256C623.187 185.752 621.939 188.056 620.403 190.168C618.675 192.184 616.755 194.008 614.547 195.544C612.339 196.984 609.843 198.136 607.155 199C604.467 199.864 601.683 200.248 598.707 200.248C594.675 200.248 590.931 199.576 587.379 198.136C583.827 196.696 580.851 194.776 578.163 192.28C575.667 189.784 573.555 186.904 572.115 183.448C570.675 180.184 569.907 176.536 569.907 172.6C569.907 168.664 570.675 165.016 572.019 161.56C573.555 158.2 575.475 155.224 577.971 152.728C580.563 150.136 583.539 148.12 586.995 146.776C590.355 145.24 594.003 144.568 597.939 144.568C601.875 144.568 605.619 145.24 608.883 146.776C612.339 148.12 615.219 150.136 617.619 152.728C620.019 155.224 621.939 158.2 623.283 161.752C624.723 165.304 625.395 169.048 625.395 173.176C625.395 174.232 625.395 175 625.299 175.768C625.203 176.344 625.107 177.208 624.915 178.072H583.731C584.115 179.704 584.691 181.144 585.651 182.488C586.419 183.736 587.571 184.888 588.819 185.752C590.067 186.616 591.603 187.288 593.139 187.864C594.867 188.248 596.595 188.536 598.419 188.536C601.011 188.536 603.219 188.152 605.043 187.288C606.771 186.52 608.499 185.176 610.131 183.256H624.051ZM612.819 166.84C611.955 163.384 610.323 160.792 607.827 158.968C605.331 157.144 602.067 156.28 598.131 156.28C596.211 156.28 594.483 156.472 592.947 156.952C591.315 157.432 589.875 158.104 588.723 158.968C587.379 159.832 586.323 160.984 585.459 162.328C584.595 163.576 583.827 165.112 583.347 166.84H612.819Z" fill="white"/>
<path fill-rule="evenodd" clip-rule="evenodd" d="M235.809 20.198C205.866 26.2468 170.952 39.6664 136.098 59.7893C101.005 80.0502 71.7672 103.761 51.5411 126.817C51.768 133.327 52.3208 138.899 53.1976 143.64C70.6113 120.376 101.659 93.1785 141.499 70.177C181.076 47.3268 219.866 34.1584 248.814 30.2905C244.108 26.4727 239.852 23.129 235.809 20.198Z" fill="white"/>
<path d="M222.264 201.265C203.541 213.3 163.645 229.905 146.037 236.703C160.413 241.718 198.058 245.931 233.631 222.661C269.203 199.392 282.108 169.281 284.114 157.133C271.298 166.829 240.986 189.229 222.264 201.265Z" fill="white"/>
<path d="M254.693 35.1043C291.804 59.5101 193.846 127.713 132.999 153.122C87.0428 166.823 60.0957 180.942 53.1976 143.64C52.3208 138.899 51.768 133.327 51.5411 126.817C51.4624 124.556 51.4229 122.181 51.4229 119.689C51.4229 53.5865 105.009 0 171.112 0C203.341 2.04632 217.371 6.83248 235.809 20.198C239.852 23.129 244.108 26.4727 248.814 30.2905C250.696 31.8179 252.651 33.4212 254.693 35.1043Z" fill="white"/>
<path d="M53.1976 143.64C52.3208 138.899 51.768 133.327 51.5411 126.817C44.8302 134.467 39.1114 142.044 34.5 149.4L31.5 153L22.5 164.5L27.5 162.195C24.6238 168.407 22.6627 174.376 21.696 180L7.5 188.5L0 211L22 196.33C22.6815 199.076 23.7161 201.673 25.1189 204.103C26.3595 206.252 27.8576 208.217 29.5966 210L7 229.5C10.1667 232.5 19.1 238.9 29.5 240.5L48 220.343C57.0676 222.992 68.0733 223.912 80.5 223.17L70 239.5C84.8333 236.333 117.5 228.4 129.5 222L131.894 213C151.888 206.754 173.25 197.758 194.787 186.17L205.588 193.909C224.921 181.409 264.888 155.109 270.088 149.909L259 143.153C275.95 129.042 289.986 114.502 300.364 100.5L310 101C318.5 90.8333 335.7 68.9 336.5 62.5L318.603 66C320.994 57.5521 321.372 49.7471 319.5 42.8944L343 34.5C342.167 29.8333 338.9 19.9 332.5 17.5L310.25 28.1962C306.361 24.7944 301.486 22.1505 295.769 20.2455L314 9.5C309.167 9 297.2 8.3 288 9.5L277.5 16.8137C271.038 16.3359 264.003 16.4428 256.5 17.1202L260.5 14C255.833 14.99 245.1 17.473 239.5 19.485C238.278 19.71 237.048 19.9477 235.809 20.198C239.852 23.129 244.108 26.4727 248.814 30.2905C270.838 27.3478 287.165 29.7884 293.81 37.4445C297.822 44.131 293.685 57.7777 284.115 72.2141C267.578 97.1599 234.03 128.503 189.887 153.988C143.531 180.752 99.2237 193.616 70.1462 193.909C55.511 194.057 43.5274 193.634 39.0534 185.886C34.7575 176.292 40.151 161.07 53.1976 143.64Z" fill="white"/>
</svg>
