<svg width="568" height="568" xmlns="http://www.w3.org/2000/svg"><g fill="none"><path fill="#F4EA12" d="m400.4 564.4 164-164V167.6l-164-164H167.5L3.6 167.6v232.8l164 164z"/><path d="M166 0 1 165l-1 1v236l165 165 1 1h236l165-165 1-1V166L403 1l-1-1H166ZM7.3 399V169L169 7.2h230L560.8 169v230L399 560.8H169L7.3 399Z" fill="#20285C"/><path d="m395.7 14.4.6.6 157.3 157.3v223.4l-158 158H172.4l-157.9-158V172.3l.6-.6L172.3 14.4h223.4Zm-1.7 4H174L18.4 174v220L174 549.6h220L549.6 394V174L394 18.4Z" fill="#20285C"/><path d="M524.8 313h9.1l-27.3 30.4v22.5h-6.4v-22.5L473 313h9.1l21.2 24.8zm-82.6 52.9h-6.4v-47.4h-24.2V313h55v5.4h-24.4zm-52.7 0h6.4V313h-6.4zm-38.2-26.7c7.8 0 10.8-1.9 10.8-10.8 0-9-4-10-11-10h-30.4v20.8h30.6Zm1-26.1c10.3 0 15.5 2.7 15.5 15.6 0 9.4-1.6 12.2-9.7 13.5 5.3.8 8.9 2.4 8.9 9.4v14.3h-5.5v-11.7c0-8.2-3-9.7-9.6-9.7h-31.2v21.4h-5.5V313h37.2Zm-60.6 0v36.5c0 16.1-5.7 16.4-18.5 16.8a348.9 348.9 0 0 1-22.2-.2c-9-.4-13-4.3-13-14.7V313h5.5v37.7c0 9 3.7 9.7 11 9.9l9.7.1 10.6-.2c7.6-.3 11.4-.7 11.4-10.4v-37h5.5Zm-72.4 35.3c0 12.9-1.5 17.5-15.5 17.8l-12 .2-5.2.1c-3.5 0-7-.1-10.4-.5-8.2-1-12-5.9-12.4-15.2a162 162 0 0 1-.3-10c0-5.2 0-10.5.8-15.5 1.7-9.6 6.6-11.6 14.4-12.2 4.2-.5 8.6-.5 12.8-.5h6.8c4 0 8 0 12 1 7.7 1.8 8.2 9 8.5 16.3h-5.6v-.4c0-3-.1-7.6-2.4-9.3-2.6-2-10.6-2-15.8-2-5 0-10.2 0-15.3.4-8 .8-9.1 2.2-10 11-.3 4.5-.3 9-.3 13.4 0 11.2 0 17.7 11.2 17.7l11 .1 10.4-.1c7.6-.3 11.4-.7 11.4-10.2v-2.1h6Zm-110.2-12.5h35.4v5.3h-35.4v19.4h37.7v5.3h-44V313h43.4v5.4h-37zm-29.3-8.2c0-2.8-.3-6.4-2.9-7.7a40.5 40.5 0 0 0-15-1.9h-2c-4.3 0-13 .4-16.9 2.3-2.6 1.3-3 4.5-3 7.4 0 6.9 3.8 8 9 8.3 1.7.2 3.4.2 5 .2l11-.1c3 0 6.3 0 9.5.5 8.5 1 12 4.2 12 14.2 0 5.9-1 10.5-6.1 13a41.4 41.4 0 0 1-17 2.5h-3.6a94 94 0 0 1-14-.8C36 364 34 360.3 34 349.4h5.6v1.1c.1 4.2.1 7.5 4.1 8.9a65.3 65.3 0 0 0 16.3 1.4c4.3 0 8.7-.2 13-.9 5.3-.7 7.6-2.8 7.6-9 0-8.1-3.7-8.6-10.1-8.8L60 342c-4.1-.1-8.3-.1-12.4-.4-8-.6-13.5-2.9-13.5-12.5 0-6.5 1.4-12 7-14.4a62 62 0 0 1 19.2-2.2c4.5 0 9.1.2 13.6.7 8 1 11.5 5.4 11.5 14.5h-5.6ZM511 239.6c-6.7-.7-13.4-.8-19-.8h-10.7l-10.5.1c-3.1 0-6.4 0-9.4-.2h-.2c-10.7-.4-13.4-2.3-13.4-9.1 0-5.9 1.7-7.4 3.3-8a110 110 0 0 1 31.2-3.3h3.7c6 0 22 0 27.4 2.5 2.2 1 3 3.6 3 8.6v4H536v-4c0-16.6-8.3-25-26.2-26.8a263 263 0 0 0-26.9-1.1 143 143 0 0 0-38.7 3.7c-4 1.5-16.5 5.9-16.5 26.4 0 19.3 15.4 22.8 30.4 23.7 6.4.4 13 .5 19.4.5l4.8.1 20.5.2c13 .3 15.6 1.1 15.6 9.9 0 7.2-2.3 9.3-11 10.3-7.6.9-15.7 1.3-24.9 1.3-6 0-22.3 0-30.3-2-4.3-1.2-4.7-2.9-4.8-10v-6h-19.5v4c0 17.8 4 26.8 26.3 29.4 9.4 1.2 19.3 1.3 27.8 1.3h7.1c12 0 25.7-.3 34.6-4 13-5.3 14.6-15.8 14.6-24.3 0-19.7-11-24.8-27.2-26.4m-157.5 15.1h64.2v-16.4h-64.2v-19.4h66.8v-16.5h-84.9v91.2h85.7v-16.4h-67.6zm-126.4-35.8h42v74.7h18.1v-74.7h42.1v-16.5H227.2zm-54.8 37.2 18.5-34.5 18.8 34.5h-37.3Zm9.5-53.8-50.7 91.3h21.2l10.6-21.1h56.2l10.8 21h21l-51.1-91.1h-18ZM47.8 218.8h53.8c9.2 0 11.2 1.7 11.2 9.3 0 8-2.5 10-12.7 10H47.8v-19.3Zm54.3 35.6c4 0 7.7.1 10.6 1.6 2.8 1.7 3 6 3 10.9 0 8.2-3 10.3-14.7 10.3H47.8v-22.8h54.3Zm23.5-9.7c4.2-3.4 5.7-8.7 5.7-17.5 0-20.5-14.8-24.9-27.2-24.9H29.7v91.3H103c15.4 0 31.2-3.4 31.2-28.2 0-10.9-2.4-17.3-8.6-20.7Z" fill="#20285C"/></g></svg>
